<?xml version="1.0" encoding="utf-8"?>
<!-- Generator: Adobe Illustrator 25.1.0, SVG Export Plug-In . SVG Version: 6.00 Build 0)  -->
<svg version="1.1" id="Layer_1" xmlns="http://www.w3.org/2000/svg" xmlns:xlink="http://www.w3.org/1999/xlink" x="0px" y="0px"
	 viewBox="0 0 220 167" style="enable-background:new 0 0 220 167;" xml:space="preserve">
<style type="text/css">
	.st0{fill:none;stroke:#1D1D1B;stroke-width:2.0498;stroke-miterlimit:10;}
	.st1{fill:#FDFDFC;}
</style>
<line class="st0" x1="9.6" y1="82.9" x2="203" y2="82.9"/>
<line class="st0" x1="49" y1="57.9" x2="49" y2="106.9"/>
<line class="st0" x1="45" y1="66.3" x2="45" y2="102.2"/>
<line class="st0" x1="52.8" y1="48.1" x2="52.8" y2="115.9"/>
<line class="st0" x1="61.1" y1="49.3" x2="61.1" y2="113.1"/>
<line class="st0" x1="57.2" y1="39.4" x2="57.2" y2="123.6"/>
<line class="st0" x1="64.8" y1="52.5" x2="64.8" y2="111.2"/>
<line class="st0" x1="73.2" y1="39.4" x2="73.2" y2="123.6"/>
<line class="st0" x1="69.2" y1="43.7" x2="69.2" y2="119.8"/>
<line class="st0" x1="77.3" y1="48.1" x2="77.3" y2="115.9"/>
<line class="st0" x1="85.3" y1="63.6" x2="85.3" y2="102.2"/>
<line class="st0" x1="81.4" y1="57.9" x2="81.4" y2="106.9"/>
<line class="st0" x1="89" y1="54.9" x2="89" y2="107.5"/>
<line class="st0" x1="97.3" y1="40.6" x2="97.3" y2="122.8"/>
<line class="st0" x1="93.3" y1="48.1" x2="93.3" y2="113.1"/>
<line class="st0" x1="101.2" y1="51.9" x2="101.2" y2="111.6"/>
<line class="st0" x1="109.5" y1="56.4" x2="109.5" y2="106.9"/>
<line class="st0" x1="105.5" y1="61.4" x2="105.5" y2="109.3"/>
<line class="st0" x1="113.2" y1="49" x2="113.2" y2="114.8"/>
<line class="st0" x1="121.5" y1="43.7" x2="121.5" y2="119.8"/>
<line class="st0" x1="117.5" y1="40.6" x2="117.5" y2="122.8"/>
<line class="st0" x1="125.4" y1="50.9" x2="125.4" y2="115.9"/>
<line class="st0" x1="133.7" y1="39.4" x2="133.7" y2="123.6"/>
<line class="st0" x1="129.7" y1="55.6" x2="129.7" y2="111.6"/>
<line class="st0" x1="141.2" y1="51.9" x2="141.2" y2="108.2"/>
<line class="st0" x1="137.2" y1="41.9" x2="137.2" y2="121"/>
<line class="st0" x1="145" y1="47.1" x2="145" y2="113.1"/>
<line class="st0" x1="153.4" y1="58.2" x2="153.4" y2="109.3"/>
<line class="st0" x1="149.4" y1="43.7" x2="149.4" y2="119.8"/>
<line class="st0" x1="157" y1="62.2" x2="157" y2="105.8"/>
<line class="st0" x1="165.5" y1="70.3" x2="165.5" y2="92.6"/>
<line class="st0" x1="161.4" y1="67.8" x2="161.4" y2="99.5"/>
<line class="st0" x1="169" y1="74.5" x2="169" y2="90"/>
<line class="st0" x1="41.2" y1="72.3" x2="41.2" y2="93.1"/>
<line class="st0" x1="36.9" y1="74.6" x2="36.9" y2="91.1"/>
<line class="st0" x1="32.6" y1="69.8" x2="32.6" y2="93.9"/>
<line class="st0" x1="172.8" y1="67.8" x2="172.8" y2="94.5"/>
<line class="st0" x1="176.8" y1="73.8" x2="176.8" y2="90.3"/>
<line class="st0" x1="180.8" y1="76.4" x2="180.8" y2="88.6"/>
<line class="st0" x1="28.7" y1="74.8" x2="28.7" y2="87.1"/>
<g>
	<path class="st1" d="M51.3,63.7h13.4c3,0,5.3,0.2,6.9,0.7c2.1,0.6,4,1.7,5.5,3.3c1.5,1.6,2.7,3.6,3.5,5.9c0.8,2.3,1.2,5.2,1.2,8.6
		c0,3-0.4,5.6-1.1,7.7c-0.9,2.6-2.2,4.8-3.9,6.4c-1.3,1.2-3,2.2-5.2,2.9c-1.6,0.5-3.8,0.8-6.5,0.8H51.3V63.7z"/>
	<path class="st1" d="M85.9,100.1V63.7h11l6.6,24.8l6.5-24.8h11v36.4h-6.8V71.5l-7.2,28.6h-7.1l-7.2-28.6v28.6H85.9z"/>
	<path class="st1" d="M127,100.2V63.8h7.3V80l14.8-16.1h9.9L145.3,78l14.4,22.2h-9.5l-10-17.1l-6,6.1v11H127z"/>
</g>
</svg>
